<svg version="1.1" id="Layer_1" xmlns="http://www.w3.org/2000/svg" xmlns:xlink="http://www.w3.org/1999/xlink" x="0px" y="0px"
	 width="100%" viewBox="0 0 538 544" enable-background="new 0 0 538 544" xml:space="preserve">
<path fill="#000000" opacity="1.000000" stroke="none" 
	d="
M294.000000,545.000000 
	C196.022507,545.000000 98.545029,545.000000 1.033770,545.000000 
	C1.033770,363.731049 1.033770,182.462112 1.033770,1.096577 
	C180.227493,1.096577 359.455048,1.096577 538.841309,1.096577 
	C538.841309,182.333221 538.841309,363.666595 538.841309,545.000000 
	C457.462067,545.000000 375.981049,545.000000 294.000000,545.000000 
M398.962585,142.399841 
	C398.675629,142.233459 398.388641,142.067078 397.964569,141.402786 
	C397.677002,141.235229 397.389435,141.067673 396.964417,140.402481 
	C396.676941,140.234985 396.389465,140.067490 395.964417,139.402451 
	C395.676971,139.234940 395.389496,139.067444 394.964386,138.402405 
	C394.676971,138.234863 394.389587,138.067337 393.963440,137.400986 
	C393.675171,137.232483 393.386871,137.063965 392.962616,136.399551 
	C392.676086,136.232803 392.389587,136.066040 391.964478,135.402344 
	C391.677338,135.234512 391.390228,135.066681 390.963409,134.400696 
	C390.675354,134.232117 390.387268,134.063538 389.961517,133.397888 
	C389.674042,133.230316 389.386536,133.062744 388.961548,132.397919 
	C388.673950,132.230408 388.386383,132.062912 387.961548,131.398026 
	C387.673920,131.230530 387.386292,131.063034 386.961578,130.398071 
	C386.673950,130.230545 386.386292,130.063019 385.961609,129.398087 
	C385.674011,129.230560 385.386444,129.063019 384.961639,128.398102 
	C384.674072,128.230499 384.386475,128.062881 383.961578,127.398018 
	C383.674072,127.230392 383.386566,127.062767 382.961548,126.397964 
	C382.674042,126.230377 382.386505,126.062782 381.961548,125.397957 
	C381.673981,125.230453 381.386414,125.062950 380.961578,124.398026 
	C380.673920,124.230576 380.386292,124.063126 379.961548,123.398079 
	C379.673828,123.230553 379.386078,123.063034 378.962616,122.399612 
	C378.676086,122.233116 378.389587,122.066612 377.963654,121.401253 
	C377.675262,121.232635 377.386871,121.064011 376.962585,120.399567 
	C376.676086,120.233093 376.389587,120.066620 375.964661,119.402695 
	C375.677185,119.235023 375.389740,119.067352 374.964447,118.402451 
	C374.677155,118.235069 374.389862,118.067680 373.964630,117.402702 
	C373.677124,117.235092 373.389618,117.067482 372.964539,116.402573 
	C372.677246,116.235115 372.389984,116.067657 371.964722,115.402847 
	C371.677399,115.235275 371.390045,115.067711 370.964661,114.402786 
	C370.677307,114.235260 370.389984,114.067734 369.963623,113.401237 
	C369.675140,113.232803 369.386627,113.064377 368.962891,112.400055 
	C368.676819,112.232605 368.390717,112.065163 367.963165,111.400055 
	C367.674866,111.231995 367.386597,111.063942 366.961639,110.398232 
	C366.673981,110.230644 366.386353,110.063057 365.961578,109.398041 
	C365.674011,109.230377 365.386414,109.062721 364.962646,108.399521 
	C364.676331,108.232826 364.389984,108.066132 363.867615,107.294411 
	C363.306427,107.254143 362.745239,107.213867 361.619507,107.133087 
	C362.596130,107.970428 363.081055,108.386215 363.704865,109.074051 
	C363.830322,109.244118 363.993774,109.361130 364.416840,109.873558 
	C364.676941,110.081848 364.943817,110.281052 365.446930,110.895111 
	C365.695892,111.098106 365.953308,111.289673 366.592102,111.992958 
	C366.918671,112.265961 367.245209,112.538956 367.711823,113.082878 
	C367.837616,113.252296 368.001160,113.368622 368.550323,113.960236 
	C368.871735,114.231552 369.193146,114.502869 369.797729,115.161827 
	C369.956543,115.460106 370.195648,115.664429 370.798126,116.162270 
	C370.956909,116.460419 371.195953,116.664558 371.796692,117.160324 
	C371.955536,117.455811 372.193085,117.659523 372.795135,118.158913 
	C372.955322,118.457130 373.195190,118.662094 373.795715,119.159454 
	C373.954376,119.454659 374.191498,119.658691 374.806335,120.172310 
	C375.057831,120.380211 375.309357,120.588120 375.703064,121.070679 
	C375.830414,121.242271 375.995575,121.361397 376.561584,121.968826 
	C376.894684,122.244553 377.227783,122.520279 377.704407,123.070107 
	C377.831909,123.241508 377.996979,123.361084 378.421875,123.875015 
	C378.680420,124.083374 378.946014,124.282372 379.446960,124.894562 
	C379.694672,125.097244 379.950897,125.288445 380.441895,125.893105 
	C380.690430,126.096107 380.947754,126.287308 381.439880,126.892654 
	C381.689178,127.095581 381.947052,127.286911 382.439972,127.892975 
	C382.689636,128.095978 382.947815,128.287445 383.442535,128.892990 
	C383.692108,129.095947 383.949890,129.287842 384.443176,129.893951 
	C384.692200,130.097153 384.949921,130.288651 385.444397,130.893204 
	C385.693329,131.096268 385.950714,131.287979 386.443237,131.893372 
	C386.691864,132.096649 386.949310,132.288086 387.441559,132.892822 
	C387.690125,133.095840 387.947449,133.287094 388.439117,133.892288 
	C388.688141,134.095062 388.945801,134.286209 389.565826,134.976517 
	C389.880829,135.243668 390.195831,135.510803 390.808319,136.177155 
	C390.968170,136.493484 391.218506,136.700333 391.702667,137.071747 
	C391.830353,137.242996 391.995667,137.361954 392.544769,137.958374 
	C392.866547,138.229645 393.188324,138.500931 393.794128,139.157867 
	C393.954285,139.453583 394.192719,139.658005 394.793732,140.156998 
	C394.954132,140.452759 395.192688,140.657349 395.792908,141.155685 
	C395.953461,141.450058 396.191315,141.654449 396.802643,142.165115 
	C396.964935,142.475708 397.213623,142.682281 397.701172,143.064499 
	C397.833466,143.239243 398.002777,143.363525 398.430023,143.876465 
	C398.683319,144.084030 398.944550,144.281067 399.439819,144.893173 
	C399.689026,145.095856 399.946777,145.286972 400.440857,145.892700 
	C400.690887,146.095490 400.949036,146.287369 401.444336,146.894043 
	C401.694244,147.097214 401.952362,147.289368 402.447845,147.894485 
	C402.696381,148.097824 402.953430,148.289795 403.445679,148.893829 
	C403.693085,149.097061 403.949554,149.288162 404.440857,149.892517 
	C404.689545,150.095535 404.946960,150.286804 405.439758,150.891891 
	C405.689087,151.094421 405.946625,151.285934 406.438263,151.892670 
	C406.687927,152.095322 406.946075,152.286484 407.577942,152.987427 
	C407.928711,153.227646 408.279510,153.467880 408.630280,153.708099 
	C408.453247,153.103745 408.276184,152.499405 407.961609,151.397964 
	C407.674164,151.230316 407.386749,151.062668 406.961578,150.397919 
	C406.674072,150.230316 406.386597,150.062698 405.961548,149.397919 
	C405.673981,149.230408 405.386414,149.062897 404.961548,148.397995 
	C404.673859,148.230637 404.386169,148.063278 403.961670,147.398270 
	C403.673981,147.230804 403.386261,147.063339 402.961731,146.398315 
	C402.674133,146.230698 402.386566,146.063065 401.961639,145.398132 
	C401.674133,145.230438 401.386597,145.062759 400.961578,144.397934 
	C400.674103,144.230316 400.386597,144.062714 399.961365,143.397659 
	C399.673431,143.230637 399.385468,143.063629 398.962585,142.399841 
M278.968201,22.392624 
	C278.683380,22.224871 278.398529,22.057117 277.970184,21.395641 
	C277.684570,21.226576 277.398926,21.057510 276.969879,20.395073 
	C276.684418,20.226162 276.398956,20.057251 275.968964,19.393688 
	C275.682587,19.223951 275.396179,19.054214 274.967163,18.390951 
	C274.681396,18.222090 274.395660,18.053230 273.967102,17.390852 
	C273.681335,17.221935 273.395599,17.053020 272.968048,16.392204 
	C272.683380,16.224195 272.398682,16.056185 271.787292,15.208956 
	C270.612549,15.384535 269.437836,15.560114 268.664093,16.084383 
	C268.721863,16.210936 268.779633,16.337488 268.837402,16.464033 
	C268.918701,16.415926 269.000000,16.367821 269.081299,16.319727 
	C268.806824,16.123823 268.532349,15.927918 268.849213,16.511538 
	C269.761017,16.616753 270.672821,16.721968 271.703461,17.085888 
	C271.818878,17.248018 271.973145,17.353128 272.380371,17.859989 
	C272.651764,18.059927 272.923157,18.259865 273.416046,18.887877 
	C273.666412,19.089191 273.925537,19.278509 274.554169,19.979496 
	C274.877228,20.251965 275.200287,20.524431 275.803131,21.185158 
	C275.958008,21.485950 276.196289,21.688780 276.818207,22.199469 
	C277.072968,22.406841 277.327759,22.614216 277.706543,23.084082 
	C277.824432,23.248447 277.980988,23.357136 278.393188,23.864944 
	C278.662903,24.064564 278.932587,24.264185 279.426392,24.890282 
	C279.675598,25.092783 279.933960,25.282883 280.426025,25.889387 
	C280.676514,26.092699 280.936035,26.283791 281.429779,26.890251 
	C281.679413,27.093832 281.938293,27.284937 282.572571,27.988045 
	C282.925323,28.229795 283.278107,28.471548 283.630859,28.713293 
	C283.456665,28.104221 283.282501,27.495150 282.967224,26.391438 
	C282.680969,26.222898 282.394745,26.054359 281.967224,25.391388 
	C281.681091,25.222746 281.394989,25.054106 280.967224,24.391247 
	C280.681122,24.222610 280.395020,24.053974 279.967163,23.391125 
	C279.681061,23.222422 279.394989,23.053720 278.968201,22.392624 
M192.804459,459.521942 
	C192.611343,459.274811 192.371231,459.088104 192.015030,458.513184 
	C191.880707,458.265961 191.746368,458.018768 191.612045,457.771545 
	C191.729233,458.207947 191.846420,458.644379 192.196350,459.477631 
	C192.389893,459.724884 192.630325,459.911804 193.062668,460.278564 
	C193.152740,460.315491 193.242813,460.352417 193.332886,460.389343 
	C193.233902,460.232544 193.134918,460.075745 192.804459,459.521942 
M186.904694,452.682770 
	C186.815582,452.649048 186.726456,452.615295 186.637344,452.581543 
	C186.729630,452.734467 186.821915,452.887360 186.984238,453.488770 
	C187.119217,453.735535 187.254211,453.982330 187.389191,454.229095 
	C187.271698,453.792267 187.154221,453.355438 186.904694,452.682770 
M212.904755,478.682709 
	C212.815582,478.649109 212.726425,478.615509 212.637253,478.581909 
	C212.730164,478.734283 212.823090,478.886627 212.985138,479.487610 
	C213.119675,479.734650 213.254196,479.981689 213.388718,480.228729 
	C213.271667,479.791840 213.154602,479.354980 212.904755,478.682709 
M26.762449,292.585968 
	C26.426697,292.591736 26.090944,292.597473 25.755190,292.603241 
	C26.132198,292.773682 26.509207,292.944122 27.000116,293.671783 
	C27.326178,294.109009 27.652239,294.546265 28.221552,295.362488 
	C28.563826,295.381897 28.906099,295.401306 29.248371,295.420715 
	C28.876585,295.237335 28.504799,295.053955 28.003212,294.309753 
	C27.670555,293.859924 27.337898,293.410126 26.762449,292.585968 
M142.981064,409.544373 
	C143.123489,409.779083 143.265930,410.013824 143.408356,410.248535 
	C143.285919,409.829987 143.163498,409.411407 142.767380,408.471313 
	C142.180084,407.967560 141.592789,407.463776 140.762482,406.585876 
	C140.426758,406.591705 140.091034,406.597534 139.755310,406.603394 
	C140.132339,406.773682 140.509369,406.943970 141.047989,407.707306 
	C141.660828,408.175812 142.273666,408.644287 142.981064,409.544373 
M219.981598,486.543640 
	C220.123749,486.778503 220.265900,487.013336 220.408051,487.248199 
	C220.285934,486.829498 220.163834,486.410797 219.805191,485.536255 
	C219.418488,485.250427 219.031784,484.964630 218.645065,484.678802 
	C218.513382,484.905640 218.381699,485.132507 218.250000,485.359344 
	C218.795792,485.610260 219.341583,485.861176 219.981598,486.543640 
M237.966171,504.559509 
	C238.114624,504.791901 238.263077,505.024323 238.411499,505.256744 
	C238.283478,504.840790 238.155457,504.424835 237.800842,503.548309 
	C237.417374,503.257385 237.033920,502.966492 236.650452,502.675598 
	C236.516144,502.900574 236.381836,503.125580 236.247528,503.350555 
	C236.788788,503.608887 237.330048,503.867218 237.966171,504.559509 
M381.910095,143.230896 
	C374.083618,135.219208 366.263794,127.200974 358.399963,119.226158 
	C358.153870,118.976593 357.452759,119.175743 356.373444,118.832458 
	C327.765991,89.985237 299.158539,61.138023 270.620544,32.360828 
	C256.534241,45.963814 243.384445,58.435013 230.503387,71.177864 
	C221.212341,80.369202 212.369873,90.012238 203.166122,99.293953 
	C186.606506,115.993843 169.924713,132.572571 153.296204,149.204163 
	C139.116882,163.386124 124.815460,177.448898 110.803963,191.794800 
	C100.144272,202.708923 90.117607,214.247681 79.328033,225.026794 
	C68.066772,236.277100 56.119999,246.837875 44.688000,257.921967 
	C38.621975,263.803345 33.012054,270.155151 26.587141,276.937592 
	C36.128777,286.708374 45.494678,296.304932 54.868015,305.894196 
	C57.741787,308.834198 60.581757,311.810242 63.533615,314.670288 
	C67.782219,318.786743 72.219604,322.712158 76.388496,326.905914 
	C80.202652,330.742828 83.581955,335.021240 87.484184,338.759186 
	C93.692856,344.706482 100.445152,350.100952 106.484833,356.206726 
	C116.946205,366.782532 126.731415,378.037201 137.358063,388.437103 
	C152.803436,403.553009 168.856171,418.046631 184.409958,433.054321 
	C189.594299,438.056702 193.851959,444.006317 198.870178,449.197174 
	C206.349075,456.933411 214.103699,464.404266 221.784500,471.943726 
	C228.343094,478.381683 235.066971,484.654205 241.529892,491.185791 
	C249.974213,499.719788 258.323456,508.352814 266.519958,517.124207 
	C269.127869,519.914978 271.297638,518.950928 273.291992,516.992798 
	C280.248169,510.162659 287.067383,503.192291 293.894867,496.232300 
	C296.740448,493.331543 299.355042,490.196930 302.282745,487.385345 
	C313.420502,476.689423 324.814331,466.254944 335.789368,455.396179 
	C348.574371,442.746704 360.969238,429.703857 373.642487,416.940002 
	C378.021881,412.529297 382.772003,408.489014 387.268646,404.191498 
	C389.859955,401.714874 392.365234,399.136139 394.762451,396.471313 
	C398.357422,392.474945 401.577301,388.111237 405.406036,384.362701 
	C410.284821,379.586060 415.918976,375.568146 420.690613,370.697235 
	C438.463074,352.555145 455.940826,334.124603 473.688660,315.958099 
	C480.543396,308.941681 487.951263,302.467987 494.872589,295.513611 
	C501.174591,289.181519 507.158966,282.533325 513.763489,275.514221 
	C505.633514,267.642395 497.867676,260.295471 490.292938,252.756470 
	C468.087769,230.656174 445.929901,208.508148 423.810242,186.322205 
	C409.765930,172.235809 395.822815,158.048508 381.910095,143.230896 
M232.148849,497.807129 
	C231.985886,497.774048 231.802933,497.680145 231.665649,497.725220 
	C231.532257,497.769012 231.330872,498.028992 231.355896,498.067963 
	C231.694443,498.595795 232.031281,499.135895 232.460190,499.585571 
	C232.552689,499.682587 233.007492,499.434052 233.295441,499.344727 
	C233.047180,498.930054 232.798935,498.515381 232.148849,497.807129 
M152.320343,419.455963 
	C152.657455,419.742767 152.994568,420.029572 153.331680,420.316376 
	C153.443726,420.058044 153.555756,419.799713 153.667786,419.541412 
	C153.215149,419.358093 152.762512,419.174774 152.320343,419.455963 
M170.320374,437.455963 
	C170.657486,437.742737 170.994583,438.029510 171.331696,438.316284 
	C171.443726,438.057953 171.555740,437.799652 171.667770,437.541321 
	C171.215164,437.358032 170.762558,437.174744 170.320374,437.455963 
M249.994644,515.747314 
	C249.842529,515.993347 249.690414,516.239380 249.538300,516.485352 
	C249.783478,516.330994 250.028656,516.176636 249.994644,515.747314 
M47.034908,313.682129 
	C46.950993,313.351868 46.867073,313.021576 46.783154,312.691315 
	C46.733562,313.002777 46.683971,313.314240 47.034908,313.682129 
M259.343018,525.920898 
	C259.624176,526.128601 259.905334,526.336304 260.186462,526.544006 
	C259.998566,526.245422 259.810669,525.946777 259.343018,525.920898 
M55.848423,322.275879 
	C55.942257,322.275421 56.036091,322.274933 55.848423,322.275879 
M161.294724,427.840485 
	C161.374969,427.790375 161.455231,427.740234 161.294724,427.840485 
M158.159409,424.293976 
	C158.079712,424.435059 158.000015,424.576111 157.920319,424.717163 
	C158.050171,424.656342 158.180023,424.595520 158.159409,424.293976 
M155.723755,421.848541 
	C155.602066,421.961487 155.480377,422.074432 155.358688,422.187408 
	C155.480957,422.168365 155.603241,422.149323 155.723755,421.848541 
M149.313126,415.522888 
	C149.119492,415.534515 148.925873,415.546143 148.732239,415.557800 
	C148.861649,415.615112 148.991058,415.672424 149.313126,415.522888 
M67.276787,334.151459 
	C67.398399,334.038544 67.520012,333.925659 67.641632,333.812775 
	C67.519501,333.831848 67.397377,333.850891 67.276787,334.151459 
M65.151253,331.723236 
	C65.057434,331.723694 64.963623,331.724152 65.151253,331.723236 
M167.848343,434.275818 
	C167.942215,434.275360 168.036072,434.274902 167.848343,434.275818 
M50.276791,317.151459 
	C50.398399,317.038574 50.520008,316.925659 50.641617,316.812775 
	C50.519493,316.831848 50.397369,316.850922 50.276791,317.151459 
M41.523674,307.686768 
	C41.592655,307.751007 41.661636,307.815247 41.523674,307.686768 
M37.848423,304.275940 
	C37.942249,304.275482 38.036079,304.275024 37.848423,304.275940 
M35.706005,302.159698 
	C35.625679,302.209808 35.545353,302.259918 35.706005,302.159698 
M32.477177,299.313477 
	C32.408180,299.249268 32.339188,299.185059 32.477177,299.313477 
M11.523688,277.686737 
	C11.592671,277.750977 11.661654,277.815247 11.523688,277.686737 
M224.313156,490.522980 
	C224.119522,490.534607 223.925888,490.546265 223.732254,490.557892 
	C223.861664,490.615204 223.991074,490.672516 224.313156,490.522980 
M269.151306,535.723511 
	C269.057465,535.723938 268.963623,535.724365 269.151306,535.723511 
M263.706146,530.159668 
	C263.625916,530.209778 263.545654,530.259888 263.706146,530.159668 
M256.276215,523.151367 
	C256.397919,523.038391 256.519592,522.925476 256.641296,522.812561 
	C256.519012,522.831604 256.396759,522.850647 256.276215,523.151367 
M254.723953,520.848755 
	C254.602371,520.961670 254.480789,521.074585 254.359222,521.187500 
	C254.481369,521.168457 254.603500,521.149414 254.723953,520.848755 
M245.523727,511.686707 
	C245.592712,511.750977 245.661697,511.815216 245.523727,511.686707 
M242.151276,508.723206 
	C242.057465,508.723663 241.963638,508.724152 242.151276,508.723206 
M229.523178,495.686615 
	C229.592239,495.750824 229.661301,495.815033 229.523178,495.686615 
M226.294739,492.840576 
	C226.374985,492.790436 226.455231,492.740326 226.294739,492.840576 
M59.706161,326.159698 
	C59.625916,326.209808 59.545670,326.259918 59.706161,326.159698 
M198.523209,464.686493 
	C198.592285,464.750732 198.661346,464.814941 198.523209,464.686493 
M196.293976,462.840332 
	C196.374298,462.790192 196.454620,462.740082 196.293976,462.840332 
M178.477188,445.313416 
	C178.408203,445.249207 178.339203,445.184998 178.477188,445.313416 
M176.313248,442.523010 
	C176.119583,442.534637 175.925903,442.546265 175.732254,442.557861 
	C175.861679,442.615173 175.991104,442.672516 176.313248,442.523010 
M173.723785,439.848541 
	C173.602081,439.961487 173.480377,440.074463 173.358688,440.187408 
	C173.480972,440.168365 173.603241,440.149323 173.723785,439.848541 
M202.565247,469.512909 
	C202.565247,469.512909 202.480103,469.558685 202.565247,469.512909 
M182.434799,448.487091 
	C182.434799,448.487091 182.519897,448.441315 182.434799,448.487091 
M72.434807,338.487091 
	C72.434807,338.487091 72.519920,338.441376 72.434807,338.487091 
M133.512848,399.435730 
	C133.512848,399.435730 133.558594,399.520874 133.512848,399.435730 
M146.435822,413.486298 
	C146.435822,413.486298 146.520844,413.440460 146.435822,413.486298 
z"/>
<path fill="#265C99" opacity="1.000000" stroke="none" 
	d="
M381.834290,143.906464 
	C395.822815,158.048508 409.765930,172.235809 423.810242,186.322205 
	C445.929901,208.508148 468.087769,230.656174 490.292938,252.756470 
	C497.867676,260.295471 505.633514,267.642395 513.763489,275.514221 
	C507.158966,282.533325 501.174591,289.181519 494.872589,295.513611 
	C487.951263,302.467987 480.543396,308.941681 473.688660,315.958099 
	C455.940826,334.124603 438.463074,352.555145 420.690613,370.697235 
	C415.918976,375.568146 410.284821,379.586060 405.406036,384.362701 
	C401.577301,388.111237 398.357422,392.474945 394.762451,396.471313 
	C392.365234,399.136139 389.859955,401.714874 387.268646,404.191498 
	C382.772003,408.489014 378.021881,412.529297 373.642487,416.940002 
	C360.969238,429.703857 348.574371,442.746704 335.789368,455.396179 
	C324.814331,466.254944 313.420502,476.689423 302.282745,487.385345 
	C299.355042,490.196930 296.740448,493.331543 293.894867,496.232300 
	C287.067383,503.192291 280.248169,510.162659 273.291992,516.992798 
	C271.297638,518.950928 269.127869,519.914978 266.519958,517.124207 
	C258.323456,508.352814 249.974213,499.719788 241.529892,491.185791 
	C235.066971,484.654205 228.343094,478.381683 221.784500,471.943726 
	C214.103699,464.404266 206.349075,456.933411 198.870178,449.197174 
	C193.851959,444.006317 189.594299,438.056702 184.409958,433.054321 
	C168.856171,418.046631 152.803436,403.553009 137.358063,388.437103 
	C126.731415,378.037201 116.946205,366.782532 106.484833,356.206726 
	C100.445152,350.100952 93.692856,344.706482 87.484184,338.759186 
	C83.581955,335.021240 80.202652,330.742828 76.388496,326.905914 
	C72.219604,322.712158 67.782219,318.786743 63.533615,314.670288 
	C60.581757,311.810242 57.741787,308.834198 54.868015,305.894196 
	C45.494678,296.304932 36.128777,286.708374 26.587141,276.937592 
	C33.012054,270.155151 38.621975,263.803345 44.688000,257.921967 
	C56.119999,246.837875 68.066772,236.277100 79.328033,225.026794 
	C90.117607,214.247681 100.144272,202.708923 110.803963,191.794800 
	C124.815460,177.448898 139.116882,163.386124 153.296204,149.204163 
	C169.924713,132.572571 186.606506,115.993843 203.166122,99.293953 
	C212.369873,90.012238 221.212341,80.369202 230.503387,71.177864 
	C243.384445,58.435013 256.534241,45.963814 270.620544,32.360828 
	C299.158539,61.138023 327.765991,89.985237 356.722412,119.331055 
	C365.325684,127.855255 373.579987,135.880859 381.834290,143.906464 
M165.294083,273.345642 
	C151.909821,273.240906 138.525604,273.119934 125.141136,273.076416 
	C124.423546,273.074127 123.703842,273.723633 122.536835,274.614044 
	C118.871704,278.547333 118.944763,280.057465 123.585228,284.520782 
	C137.169922,284.650269 150.754562,284.791412 164.339539,284.867523 
	C164.896271,284.870667 165.456436,284.262573 166.481659,283.387390 
	C170.261749,280.189240 170.101501,277.413910 165.294083,273.345642 
M301.305450,377.339111 
	C281.142151,377.243347 260.978882,377.140839 240.815460,377.085358 
	C240.227188,377.083740 239.637543,377.579285 238.370682,378.174988 
	C234.616898,382.269897 234.768860,384.513031 239.688354,388.661896 
	C259.853210,388.757141 280.018036,388.859131 300.183014,388.913910 
	C300.770691,388.915497 301.359741,388.417755 302.626831,387.823914 
	C306.357361,383.746094 306.202942,381.481689 301.305450,377.339111 
M229.041290,208.463989 
	C222.575348,214.897507 215.325455,220.724228 209.788971,227.877167 
	C192.472427,250.249496 188.127655,275.350739 195.922791,302.593170 
	C199.494858,315.076813 208.744324,323.261047 217.395416,331.996674 
	C226.293686,340.981903 232.374542,351.307983 232.042633,364.546661 
	C231.933960,368.880859 234.013794,371.205414 238.774475,371.178436 
	C259.908508,371.058502 281.043884,371.070923 302.178131,371.169098 
	C306.882721,371.190948 308.784821,368.875183 309.008057,364.530426 
	C309.152435,361.721008 309.047302,358.852631 309.591858,356.117798 
	C312.091492,343.564301 320.199707,334.585876 329.242706,326.356293 
	C348.285797,309.026093 351.117126,286.796265 347.227020,263.308441 
	C343.445099,240.473511 330.513245,222.649002 312.244904,208.859940 
	C299.669769,199.368195 284.988586,195.014908 269.368164,195.206375 
	C254.984665,195.382690 241.642166,199.928329 229.041290,208.463989 
M260.500031,394.865234 
	C253.675598,394.869385 246.848831,394.767181 240.027588,394.916565 
	C235.772339,395.009735 232.969193,398.468994 234.186020,402.202332 
	C236.782654,410.169128 240.314819,417.496399 247.703796,422.407990 
	C255.471909,427.571564 263.977844,431.966156 273.106110,430.630249 
	C282.807098,429.210510 292.689545,425.723846 298.824310,417.141571 
	C302.071259,412.599304 304.524109,407.068207 305.756561,401.625916 
	C306.983093,396.209930 305.095001,394.892242 299.450623,394.875610 
	C286.800537,394.838318 274.150208,394.864624 260.500031,394.865234 
M373.021576,281.706665 
	C375.304321,282.470734 377.573914,283.845184 379.872101,283.894806 
	C390.694183,284.128387 401.524200,284.008057 412.351288,283.984711 
	C413.504333,283.982208 414.665314,283.844482 415.808197,283.673279 
	C419.110199,283.178650 421.371552,280.746002 420.578308,277.970795 
	C419.995148,275.930634 416.854095,273.300568 414.771729,273.226868 
	C402.294495,272.785156 389.791992,272.885101 377.301819,273.068237 
	C372.297485,273.141602 370.673767,276.210693 373.021576,281.706665 
M265.000885,130.802124 
	C265.001953,141.935898 264.941284,153.070236 265.041870,164.203110 
	C265.071930,167.529205 266.083588,170.551041 270.081177,170.974533 
	C273.978577,171.387405 275.774841,168.563553 275.841980,165.534561 
	C276.117981,153.078201 276.097168,140.609085 275.847107,128.151459 
	C275.781586,124.887520 274.068970,121.844482 270.027252,122.083527 
	C266.286835,122.304764 265.399475,125.262848 265.016144,128.389313 
	C264.955902,128.880722 265.003448,129.385361 265.000885,130.802124 
M199.399078,166.110931 
	C202.890320,171.337936 206.358429,176.580597 209.881927,181.785782 
	C211.829651,184.663086 214.552246,185.672272 217.514984,183.711365 
	C220.335281,181.844727 220.395523,178.940048 218.634521,176.270157 
	C211.905365,166.067978 205.165314,155.869476 198.194382,145.832809 
	C196.460373,143.336212 194.060516,140.420944 190.353088,142.959213 
	C186.531464,145.575668 187.535141,148.932922 189.652084,152.097473 
	C192.681412,156.626007 195.846771,161.063522 199.399078,166.110931 
M387.101929,345.423340 
	C378.976074,340.058380 370.904144,334.608856 362.693970,329.376251 
	C359.975983,327.643951 356.657928,326.469025 354.166229,329.590729 
	C351.385651,333.074280 353.429413,335.937958 356.461884,337.919800 
	C366.820099,344.689178 377.270447,351.318054 387.710754,357.961090 
	C390.572235,359.781830 393.069794,359.256439 395.039520,356.460510 
	C397.243713,353.331818 395.329498,351.050598 393.202332,349.158966 
	C391.628571,347.759430 389.560394,346.915771 387.101929,345.423340 
M161.413132,212.068512 
	C155.579224,208.338852 149.676666,204.710983 143.937698,200.840515 
	C140.609680,198.596008 137.545547,197.642960 135.074921,201.640747 
	C132.590439,205.660980 135.793289,207.930405 138.455002,209.697037 
	C148.348969,216.263840 158.411957,222.576309 168.422363,228.967209 
	C171.312286,230.812210 174.364685,230.920898 176.307571,227.977722 
	C178.072266,225.304489 177.152878,222.529510 174.390961,220.670349 
	C170.287842,217.908386 166.151749,215.195404 161.413132,212.068512 
M352.332336,148.617798 
	C351.685730,146.480621 351.039124,144.343445 350.392517,142.206268 
	C347.906067,142.983566 344.341614,142.976273 343.110779,144.667419 
	C335.943817,154.514679 329.307373,164.749130 322.531372,174.879272 
	C320.575958,177.802643 319.902008,180.832474 323.393188,183.076035 
	C326.810638,185.272232 329.273682,183.503265 331.220367,180.577225 
	C338.154999,170.154037 345.090790,159.731613 352.332336,148.617798 
M156.405121,357.100830 
	C166.115921,350.818604 175.748123,344.409485 185.579529,338.322052 
	C189.087387,336.150055 190.324661,333.378693 188.392456,330.072632 
	C186.300552,326.493378 183.017242,327.782257 180.072128,329.385742 
	C179.492035,329.701538 178.873871,329.957001 178.324478,330.318207 
	C169.216034,336.306030 160.207092,342.452362 150.967072,348.229279 
	C147.460938,350.421295 145.457520,353.089478 147.512482,356.736084 
	C149.446930,360.168793 152.830017,359.328217 156.405121,357.100830 
M393.629364,202.073151 
	C384.667114,207.927994 375.678406,213.742920 366.757843,219.660614 
	C363.859070,221.583588 362.053619,224.428986 364.434357,227.570389 
	C366.681519,230.535507 369.736938,229.902222 372.755524,227.922882 
	C381.846497,221.961761 391.097626,216.244675 400.179565,210.270203 
	C403.486176,208.094986 408.218506,206.193726 405.290619,200.771378 
	C403.319061,197.120102 400.347900,197.530991 393.629364,202.073151 
z"/>
<path fill="#1F6E85" opacity="1.000000" stroke="none" 
	d="
M381.872192,143.568680 
	C373.579987,135.880859 365.325684,127.855255 357.017578,119.497681 
	C357.452759,119.175743 358.153870,118.976593 358.399963,119.226158 
	C366.263794,127.200974 374.083618,135.219208 381.872192,143.568680 
z"/>
<path fill="#000000" opacity="1.000000" stroke="none" 
	d="
M232.349762,497.953918 
	C232.798935,498.515381 233.047180,498.930054 233.295441,499.344727 
	C233.007492,499.434052 232.552689,499.682587 232.460190,499.585571 
	C232.031281,499.135895 231.694443,498.595795 231.355896,498.067963 
	C231.330872,498.028992 231.532257,497.769012 231.665649,497.725220 
	C231.802933,497.680145 231.985886,497.774048 232.349762,497.953918 
z"/>
<path fill="#000000" opacity="1.000000" stroke="none" 
	d="
M152.315109,419.223724 
	C152.762512,419.174774 153.215149,419.358093 153.667786,419.541382 
	C153.555756,419.799713 153.443726,420.058044 153.331696,420.316376 
	C152.994568,420.029572 152.657455,419.742767 152.315109,419.223724 
z"/>
<path fill="#000000" opacity="1.000000" stroke="none" 
	d="
M170.315155,437.223694 
	C170.762558,437.174744 171.215164,437.358032 171.667770,437.541321 
	C171.555740,437.799652 171.443726,438.057953 171.331696,438.316284 
	C170.994583,438.029510 170.657486,437.742737 170.315155,437.223694 
z"/>
<path fill="#000000" opacity="1.000000" stroke="none" 
	d="
M250.134247,515.884766 
	C250.028656,516.176636 249.783478,516.330994 249.538300,516.485352 
	C249.690414,516.239380 249.842529,515.993347 250.134247,515.884766 
z"/>
<path fill="#000000" opacity="1.000000" stroke="none" 
	d="
M237.871307,504.125549 
	C237.330048,503.867218 236.788788,503.608887 236.247528,503.350555 
	C236.381836,503.125580 236.516144,502.900574 236.650452,502.675598 
	C237.033920,502.966492 237.417374,503.257385 237.872742,503.804565 
	C237.944626,504.060852 237.871323,504.125549 237.871307,504.125549 
z"/>
<path fill="#000000" opacity="1.000000" stroke="none" 
	d="
M46.834644,313.653931 
	C46.683971,313.314240 46.733562,313.002777 46.783157,312.691315 
	C46.867073,313.021576 46.950993,313.351868 46.834644,313.653931 
z"/>
<path fill="#000000" opacity="1.000000" stroke="none" 
	d="
M219.887375,486.112091 
	C219.341583,485.861176 218.795792,485.610260 218.250000,485.359344 
	C218.381699,485.132507 218.513382,484.905640 218.645065,484.678802 
	C219.031784,484.964630 219.418488,485.250427 219.882660,485.791321 
	C219.960114,486.046387 219.887375,486.112091 219.887375,486.112091 
z"/>
<path fill="#000000" opacity="1.000000" stroke="none" 
	d="
M259.482910,525.784546 
	C259.810669,525.946777 259.998566,526.245422 260.186462,526.544006 
	C259.905334,526.336304 259.624176,526.128601 259.482910,525.784546 
z"/>
<path fill="#000000" opacity="1.000000" stroke="none" 
	d="
M141.005493,406.960022 
	C141.592789,407.463776 142.180084,407.967560 142.863373,408.759186 
	C142.959351,409.047058 142.886520,409.112762 142.886520,409.112762 
	C142.273666,408.644287 141.660828,408.175812 140.999847,407.374451 
	C140.951721,407.041595 141.005478,406.960022 141.005493,406.960022 
z"/>
<path fill="#E6E6E6" opacity="1.000000" stroke="none" 
	d="
M268.263092,15.735695 
	C269.437836,15.560114 270.612549,15.384535 271.804443,15.775506 
	C271.742584,16.503765 271.663605,16.665474 271.584625,16.827183 
	C270.672821,16.721968 269.761017,16.616753 268.599121,16.133814 
	C268.348999,15.756091 268.263092,15.735696 268.263092,15.735695 
z"/>
<path fill="#000000" opacity="1.000000" stroke="none" 
	d="
M55.989174,322.275177 
	C56.036091,322.274933 55.942257,322.275421 55.989174,322.275177 
z"/>
<path fill="#000000" opacity="1.000000" stroke="none" 
	d="
M161.415100,427.765320 
	C161.455231,427.740234 161.374969,427.790375 161.415100,427.765320 
z"/>
<path fill="#000000" opacity="1.000000" stroke="none" 
	d="
M158.234650,424.414307 
	C158.180023,424.595520 158.050171,424.656342 157.920319,424.717163 
	C158.000015,424.576111 158.079712,424.435059 158.234650,424.414307 
z"/>
<path fill="#000000" opacity="1.000000" stroke="none" 
	d="
M155.724640,421.989410 
	C155.603241,422.149323 155.480957,422.168365 155.358688,422.187408 
	C155.480377,422.074432 155.602066,421.961487 155.724640,421.989410 
z"/>
<path fill="#000000" opacity="1.000000" stroke="none" 
	d="
M149.216797,415.626312 
	C148.991058,415.672424 148.861649,415.615112 148.732239,415.557800 
	C148.925873,415.546143 149.119492,415.534515 149.216797,415.626312 
z"/>
<path fill="#000000" opacity="1.000000" stroke="none" 
	d="
M143.000214,409.019958 
	C143.163498,409.411407 143.285919,409.829987 143.408356,410.248535 
	C143.265930,410.013824 143.123489,409.779083 142.933792,409.328552 
	C142.886520,409.112762 142.959351,409.047058 143.000214,409.019958 
z"/>
<path fill="#000000" opacity="1.000000" stroke="none" 
	d="
M140.919067,407.077942 
	C140.509369,406.943970 140.132339,406.773682 139.755310,406.603394 
	C140.091034,406.597534 140.426758,406.591705 140.883972,406.772949 
	C141.005478,406.960022 140.951721,407.041595 140.919067,407.077942 
z"/>
<path fill="#E6E6E6" opacity="1.000000" stroke="none" 
	d="
M283.108307,26.886078 
	C283.282501,27.495150 283.456665,28.104221 283.630859,28.713295 
	C283.278107,28.471548 282.925323,28.229795 282.625854,27.598434 
	C282.822174,27.101244 282.965240,26.993662 283.108307,26.886078 
z"/>
<path fill="#EAEAEA" opacity="1.000000" stroke="none" 
	d="
M363.566010,108.801994 
	C363.081055,108.386215 362.596130,107.970428 361.619507,107.133087 
	C362.745239,107.213867 363.306427,107.254143 363.837830,107.814568 
	C363.727356,108.490479 363.646667,108.646240 363.566010,108.801994 
z"/>
<path fill="#000000" opacity="1.000000" stroke="none" 
	d="
M67.276016,334.010712 
	C67.397377,333.850891 67.519501,333.831848 67.641632,333.812775 
	C67.520012,333.925659 67.398399,334.038544 67.276016,334.010712 
z"/>
<path fill="#000000" opacity="1.000000" stroke="none" 
	d="
M65.010529,331.723938 
	C64.963623,331.724152 65.057434,331.723694 65.010529,331.723938 
z"/>
<path fill="#000000" opacity="1.000000" stroke="none" 
	d="
M167.989136,434.275146 
	C168.036072,434.274902 167.942215,434.275360 167.989136,434.275146 
z"/>
<path fill="#000000" opacity="1.000000" stroke="none" 
	d="
M50.276016,317.010712 
	C50.397369,316.850922 50.519493,316.831848 50.641617,316.812775 
	C50.520008,316.925659 50.398399,317.038574 50.276016,317.010712 
z"/>
<path fill="#000000" opacity="1.000000" stroke="none" 
	d="
M41.627144,307.783142 
	C41.661636,307.815247 41.592655,307.751007 41.627144,307.783142 
z"/>
<path fill="#000000" opacity="1.000000" stroke="none" 
	d="
M37.989166,304.275269 
	C38.036079,304.275024 37.942249,304.275482 37.989166,304.275269 
z"/>
<path fill="#000000" opacity="1.000000" stroke="none" 
	d="
M35.585518,302.234863 
	C35.545353,302.259918 35.625679,302.209808 35.585518,302.234863 
z"/>
<path fill="#000000" opacity="1.000000" stroke="none" 
	d="
M32.373684,299.217163 
	C32.339188,299.185059 32.408180,299.249268 32.373684,299.217163 
z"/>
<path fill="#000000" opacity="1.000000" stroke="none" 
	d="
M28.133011,294.870575 
	C28.504799,295.053955 28.876585,295.237335 29.248371,295.420715 
	C28.906099,295.401306 28.563826,295.381897 28.140842,295.148804 
	C28.060135,294.935089 28.133013,294.870575 28.133011,294.870575 
z"/>
<path fill="#000000" opacity="1.000000" stroke="none" 
	d="
M27.005238,292.960297 
	C27.337898,293.410126 27.670555,293.859924 28.068111,294.590149 
	C28.133013,294.870575 28.060135,294.935089 28.019218,294.959290 
	C27.652239,294.546265 27.326178,294.109009 26.975813,293.356812 
	C26.951509,293.041870 27.005236,292.960297 27.005238,292.960297 
z"/>
<path fill="#000000" opacity="1.000000" stroke="none" 
	d="
M26.918861,293.078217 
	C26.509207,292.944122 26.132198,292.773682 25.755192,292.603241 
	C26.090944,292.597473 26.426697,292.591736 26.883842,292.773132 
	C27.005236,292.960297 26.951509,293.041870 26.918861,293.078217 
z"/>
<path fill="#000000" opacity="1.000000" stroke="none" 
	d="
M11.627163,277.783112 
	C11.661654,277.815247 11.592671,277.750977 11.627163,277.783112 
z"/>
<path fill="#000000" opacity="1.000000" stroke="none" 
	d="
M224.216827,490.626404 
	C223.991074,490.672516 223.861664,490.615204 223.732254,490.557922 
	C223.925888,490.546265 224.119522,490.534607 224.216827,490.626404 
z"/>
<path fill="#000000" opacity="1.000000" stroke="none" 
	d="
M269.010559,535.724182 
	C268.963623,535.724365 269.057465,535.723938 269.010559,535.724182 
z"/>
<path fill="#000000" opacity="1.000000" stroke="none" 
	d="
M263.585754,530.234863 
	C263.545654,530.259888 263.625916,530.209778 263.585754,530.234863 
z"/>
<path fill="#000000" opacity="1.000000" stroke="none" 
	d="
M256.275330,523.010498 
	C256.396759,522.850647 256.519012,522.831604 256.641296,522.812561 
	C256.519592,522.925476 256.397919,523.038391 256.275330,523.010498 
z"/>
<path fill="#000000" opacity="1.000000" stroke="none" 
	d="
M254.724792,520.989502 
	C254.603500,521.149414 254.481369,521.168457 254.359207,521.187500 
	C254.480789,521.074585 254.602371,520.961670 254.724792,520.989502 
z"/>
<path fill="#000000" opacity="1.000000" stroke="none" 
	d="
M245.627197,511.783081 
	C245.661697,511.815216 245.592712,511.750977 245.627197,511.783081 
z"/>
<path fill="#000000" opacity="1.000000" stroke="none" 
	d="
M242.010559,508.723907 
	C241.963638,508.724152 242.057465,508.723663 242.010559,508.723907 
z"/>
<path fill="#000000" opacity="1.000000" stroke="none" 
	d="
M237.986023,504.034851 
	C238.155457,504.424835 238.283478,504.840790 238.411514,505.256744 
	C238.263077,505.024323 238.114624,504.791901 237.918747,504.342529 
	C237.871323,504.125549 237.944626,504.060852 237.986023,504.034851 
z"/>
<path fill="#000000" opacity="1.000000" stroke="none" 
	d="
M229.626770,495.782959 
	C229.661301,495.815033 229.592239,495.750824 229.626770,495.782959 
z"/>
<path fill="#000000" opacity="1.000000" stroke="none" 
	d="
M226.415100,492.765381 
	C226.455231,492.740326 226.374985,492.790436 226.415100,492.765381 
z"/>
<path fill="#000000" opacity="1.000000" stroke="none" 
	d="
M59.585793,326.234863 
	C59.545670,326.259918 59.625916,326.209808 59.585793,326.234863 
z"/>
<path fill="#000000" opacity="1.000000" stroke="none" 
	d="
M220.000916,486.019226 
	C220.163834,486.410797 220.285934,486.829498 220.408051,487.248199 
	C220.265900,487.013336 220.123749,486.778503 219.934479,486.327881 
	C219.887375,486.112091 219.960114,486.046387 220.000916,486.019226 
z"/>
<path fill="#000000" opacity="1.000000" stroke="none" 
	d="
M213.037552,478.918091 
	C213.154602,479.354980 213.271667,479.791840 213.388718,480.228729 
	C213.254196,479.981689 213.119675,479.734650 212.985382,479.237518 
	C212.985626,478.987427 213.037552,478.918091 213.037552,478.918091 
z"/>
<path fill="#000000" opacity="1.000000" stroke="none" 
	d="
M198.626816,464.782837 
	C198.661346,464.814941 198.592285,464.750732 198.626816,464.782837 
z"/>
<path fill="#000000" opacity="1.000000" stroke="none" 
	d="
M196.414459,462.765137 
	C196.454620,462.740082 196.374298,462.790192 196.414459,462.765137 
z"/>
<path fill="#000000" opacity="1.000000" stroke="none" 
	d="
M191.963608,459.080780 
	C191.846420,458.644379 191.729233,458.207947 191.612045,457.771545 
	C191.746368,458.018768 191.880707,458.265961 192.014771,458.762512 
	C192.014496,459.011841 191.963608,459.080780 191.963608,459.080780 
z"/>
<path fill="#000000" opacity="1.000000" stroke="none" 
	d="
M187.036743,452.918610 
	C187.154221,453.355438 187.271698,453.792267 187.389191,454.229095 
	C187.254211,453.982330 187.119217,453.735535 186.984314,453.238586 
	C186.984390,452.988434 187.036743,452.918610 187.036743,452.918610 
z"/>
<path fill="#000000" opacity="1.000000" stroke="none" 
	d="
M178.373688,445.217102 
	C178.339203,445.184998 178.408203,445.249207 178.373688,445.217102 
z"/>
<path fill="#000000" opacity="1.000000" stroke="none" 
	d="
M176.216888,442.626404 
	C175.991104,442.672516 175.861679,442.615173 175.732239,442.557861 
	C175.925903,442.546265 176.119583,442.534637 176.216888,442.626404 
z"/>
<path fill="#000000" opacity="1.000000" stroke="none" 
	d="
M173.724655,439.989380 
	C173.603241,440.149323 173.480972,440.168365 173.358688,440.187408 
	C173.480377,440.074463 173.602081,439.961487 173.724655,439.989380 
z"/>
<path fill="#EAEAEA" opacity="1.000000" stroke="none" 
	d="
M408.099152,151.895050 
	C408.276184,152.499405 408.453247,153.103745 408.630280,153.708099 
	C408.279510,153.467880 407.928711,153.227646 407.627625,152.600586 
	C407.817902,152.107513 407.958527,152.001282 408.099152,151.895050 
z"/>
<path fill="#EAEAEA" opacity="1.000000" stroke="none" 
	d="
M393.098602,136.895462 
	C393.386871,137.063965 393.675171,137.232483 393.870117,137.858521 
	C393.687866,138.468109 393.598999,138.620148 393.510101,138.772217 
	C393.188324,138.500931 392.866547,138.229645 392.604675,137.573639 
	C392.809204,137.091095 392.953888,136.993286 393.098602,136.895462 
z"/>
<path fill="#EAEAEA" opacity="1.000000" stroke="none" 
	d="
M390.510834,135.777954 
	C390.195831,135.510803 389.880829,135.243668 389.621460,134.595062 
	C389.817810,134.107391 389.958527,134.001160 390.099213,133.894943 
	C390.387268,134.063538 390.675354,134.232117 390.870300,134.859543 
	C390.688416,135.471573 390.599609,135.624771 390.510834,135.777954 
z"/>
<path fill="#000000" opacity="1.000000" stroke="none" 
	d="
M212.950806,479.013214 
	C212.823090,478.886627 212.730164,478.734283 212.637253,478.581909 
	C212.726425,478.615509 212.815582,478.649109 212.971161,478.800415 
	C213.037552,478.918091 212.985626,478.987427 212.950806,479.013214 
z"/>
<path fill="#000000" opacity="1.000000" stroke="none" 
	d="
M202.522675,469.535797 
	C202.480103,469.558685 202.565247,469.512909 202.522675,469.535797 
z"/>
<path fill="#EAEAEA" opacity="1.000000" stroke="none" 
	d="
M391.559357,136.797684 
	C391.218506,136.700333 390.968170,136.493484 390.659576,135.977554 
	C390.599609,135.624771 390.688416,135.471573 390.940155,135.108612 
	C391.390228,135.066681 391.677338,135.234512 391.884705,135.867447 
	C391.723053,136.487579 391.641205,136.642624 391.559357,136.797684 
z"/>
<path fill="#EAEAEA" opacity="1.000000" stroke="none" 
	d="
M392.431580,137.308762 
	C391.995667,137.361954 391.830353,137.242996 391.631012,136.934723 
	C391.641205,136.642624 391.723053,136.487579 391.953979,136.115906 
	C392.389587,136.066040 392.676086,136.232803 393.030609,136.647507 
	C392.953888,136.993286 392.809204,137.091095 392.431580,137.308762 
z"/>
<path fill="#000000" opacity="1.000000" stroke="none" 
	d="
M193.035919,459.918945 
	C193.134918,460.075745 193.233902,460.232544 193.332886,460.389343 
	C193.242813,460.352417 193.152740,460.315491 193.024307,460.133148 
	C192.985947,459.987732 193.035919,459.918945 193.035919,459.918945 
z"/>
<path fill="#000000" opacity="1.000000" stroke="none" 
	d="
M192.951813,460.013062 
	C192.630325,459.911804 192.389893,459.724884 192.079987,459.279205 
	C191.963608,459.080780 192.014496,459.011841 192.049316,458.986847 
	C192.371231,459.088104 192.611343,459.274811 192.920197,459.720459 
	C193.035919,459.918945 192.985947,459.987732 192.951813,460.013062 
z"/>
<path fill="#E6E6E6" opacity="1.000000" stroke="none" 
	d="
M275.109802,18.884480 
	C275.396179,19.054214 275.682587,19.223951 275.878021,19.857977 
	C275.699158,20.480476 275.611267,20.638687 275.523346,20.796900 
	C275.200287,20.524431 274.877228,20.251965 274.613617,19.592039 
	C274.818665,19.097881 274.964233,18.991180 275.109802,18.884480 
z"/>
<path fill="#EAEAEA" opacity="1.000000" stroke="none" 
	d="
M394.509430,139.771164 
	C394.192719,139.658005 393.954285,139.453583 393.652100,138.965027 
	C393.598999,138.620148 393.687866,138.468109 393.939453,138.107925 
	C394.389587,138.067337 394.676971,138.234863 394.870422,138.859024 
	C394.687439,139.467468 394.598450,139.619308 394.509430,139.771164 
z"/>
<path fill="#000000" opacity="1.000000" stroke="none" 
	d="
M186.949295,453.014343 
	C186.821915,452.887360 186.729630,452.734467 186.637344,452.581543 
	C186.726456,452.615295 186.815582,452.649048 186.970718,452.800690 
	C187.036743,452.918610 186.984390,452.988434 186.949295,453.014343 
z"/>
<path fill="#000000" opacity="1.000000" stroke="none" 
	d="
M182.477356,448.464203 
	C182.519897,448.441315 182.434799,448.487091 182.477356,448.464203 
z"/>
<path fill="#EAEAEA" opacity="1.000000" stroke="none" 
	d="
M395.509460,140.770767 
	C395.192688,140.657349 394.954132,140.452759 394.651581,139.964081 
	C394.598450,139.619308 394.687439,139.467468 394.939270,139.107788 
	C395.389496,139.067444 395.676971,139.234940 395.870453,139.858978 
	C395.687469,140.467255 395.598480,140.619019 395.509460,140.770767 
z"/>
<path fill="#EAEAEA" opacity="1.000000" stroke="none" 
	d="
M396.506470,141.768860 
	C396.191315,141.654449 395.953461,141.450058 395.651184,140.963226 
	C395.598480,140.619019 395.687469,140.467255 395.939240,140.107758 
	C396.389465,140.067490 396.676941,140.234985 396.870056,140.858734 
	C396.685944,141.466263 396.596222,141.617569 396.506470,141.768860 
z"/>
<path fill="#EAEAEA" opacity="1.000000" stroke="none" 
	d="
M397.548706,142.784851 
	C397.213623,142.682281 396.964935,142.475708 396.654541,141.966980 
	C396.596222,141.617569 396.685944,141.466263 396.938782,141.107544 
	C397.389435,141.067673 397.677002,141.235229 397.881989,141.864716 
	C397.715820,142.479385 397.632263,142.632126 397.548706,142.784851 
z"/>
<path fill="#E6E6E6" opacity="1.000000" stroke="none" 
	d="
M276.517944,21.793642 
	C276.196289,21.688780 275.958008,21.485950 275.663239,20.991028 
	C275.611267,20.638687 275.699158,20.480476 275.950287,20.105303 
	C276.398956,20.057251 276.684418,20.226162 276.876892,20.857632 
	C276.695221,21.478008 276.606567,21.635826 276.517944,21.793642 
z"/>
<path fill="#EAEAEA" opacity="1.000000" stroke="none" 
	d="
M377.560883,122.796005 
	C377.227783,122.520279 376.894684,122.244553 376.613403,121.579376 
	C376.809631,121.091743 376.954041,120.993568 377.098480,120.895386 
	C377.386871,121.064011 377.675262,121.232635 377.884094,121.866356 
	C377.723358,122.486305 377.642120,122.641151 377.560883,122.796005 
z"/>
<path fill="#E6E6E6" opacity="1.000000" stroke="none" 
	d="
M277.582520,22.821589 
	C277.327759,22.614216 277.072968,22.406841 276.668091,21.996555 
	C276.606567,21.635826 276.695221,21.478008 276.948608,21.104317 
	C277.398926,21.057510 277.684570,21.226576 277.895081,21.867533 
	C277.740814,22.500145 277.661652,22.660866 277.582520,22.821589 
z"/>
<path fill="#EAEAEA" opacity="1.000000" stroke="none" 
	d="
M389.099060,132.895187 
	C389.386536,133.062744 389.674042,133.230316 390.030365,133.646423 
	C389.958527,134.001160 389.817810,134.107391 389.444580,134.339676 
	C388.945801,134.286209 388.688141,134.095062 388.558350,133.553101 
	C388.818085,133.107651 388.958588,133.001419 389.099060,132.895187 
z"/>
<path fill="#EAEAEA" opacity="1.000000" stroke="none" 
	d="
M388.098785,131.895416 
	C388.386383,132.062912 388.673950,132.230408 389.030304,132.646545 
	C388.958588,133.001419 388.818085,133.107651 388.445587,133.340225 
	C387.947449,133.287094 387.690125,133.095840 387.559967,132.553543 
	C387.818512,132.107986 387.958649,132.001694 388.098785,131.895416 
z"/>
<path fill="#EAEAEA" opacity="1.000000" stroke="none" 
	d="
M387.098663,130.895538 
	C387.386292,131.063034 387.673920,131.230530 388.030151,131.646729 
	C387.958649,132.001694 387.818512,132.107986 387.446960,132.340973 
	C386.949310,132.288086 386.691864,132.096649 386.561523,131.554749 
	C386.819458,131.109268 386.959045,131.002396 387.098663,130.895538 
z"/>
<path fill="#EAEAEA" opacity="1.000000" stroke="none" 
	d="
M386.098663,129.895493 
	C386.386292,130.063019 386.673950,130.230545 387.030121,130.646805 
	C386.959045,131.002396 386.819458,131.109268 386.448181,131.342224 
	C385.950714,131.287979 385.693329,131.096268 385.561523,130.553864 
	C385.818665,130.108185 385.958679,130.001831 386.098663,129.895493 
z"/>
<path fill="#E6E6E6" opacity="1.000000" stroke="none" 
	d="
M274.433228,19.330206 
	C273.925537,19.278509 273.666412,19.089191 273.544708,18.546808 
	C273.818878,18.098619 273.964386,17.991497 274.109894,17.884371 
	C274.395660,18.053230 274.681396,18.222090 275.038483,18.637716 
	C274.964233,18.991180 274.818665,19.097881 274.433228,19.330206 
z"/>
<path fill="#E6E6E6" opacity="1.000000" stroke="none" 
	d="
M273.433960,18.332771 
	C272.923157,18.259865 272.651764,18.059927 272.517029,17.515610 
	C272.805756,17.075523 272.957794,16.979816 273.109833,16.884106 
	C273.395599,17.053020 273.681335,17.221935 274.038513,17.637611 
	C273.964386,17.991497 273.818878,18.098619 273.433960,18.332771 
z"/>
<path fill="#EAEAEA" opacity="1.000000" stroke="none" 
	d="
M385.098846,128.895477 
	C385.386444,129.063019 385.674011,129.230560 386.030151,129.646790 
	C385.958679,130.001831 385.818665,130.108185 385.447510,130.341461 
	C384.949921,130.288651 384.692200,130.097153 384.560913,129.554367 
	C384.818695,129.108353 384.958771,129.001907 385.098846,128.895477 
z"/>
<path fill="#EAEAEA" opacity="1.000000" stroke="none" 
	d="
M384.447296,129.341736 
	C383.949890,129.287842 383.692108,129.095947 383.560242,128.553574 
	C383.818298,128.107849 383.958618,128.001556 384.098907,127.895264 
	C384.386475,128.062881 384.674072,128.230499 385.030243,128.646790 
	C384.958771,129.001907 384.818695,129.108353 384.447296,129.341736 
z"/>
<path fill="#EAEAEA" opacity="1.000000" stroke="none" 
	d="
M383.099060,126.895149 
	C383.386566,127.062767 383.674072,127.230392 384.030243,127.646637 
	C383.958618,128.001556 383.818298,128.107849 383.446289,128.340775 
	C382.947815,128.287445 382.689636,128.095978 382.558777,127.553436 
	C382.818085,127.107643 382.958588,127.001396 383.099060,126.895149 
z"/>
<path fill="#E6E6E6" opacity="1.000000" stroke="none" 
	d="
M272.409973,17.286224 
	C271.973145,17.353128 271.818878,17.248018 271.644043,16.956535 
	C271.663605,16.665474 271.742584,16.503765 271.967804,16.115116 
	C272.398682,16.056185 272.683380,16.224195 273.038940,16.638157 
	C272.957794,16.979816 272.805756,17.075523 272.409973,17.286224 
z"/>
<path fill="#EAEAEA" opacity="1.000000" stroke="none" 
	d="
M382.098999,125.895187 
	C382.386505,126.062782 382.674042,126.230377 383.030304,126.646561 
	C382.958588,127.001396 382.818085,127.107643 382.445557,127.340271 
	C381.947052,127.286911 381.689178,127.095581 381.558807,126.553299 
	C381.818146,126.107689 381.958588,126.001442 382.098999,125.895187 
z"/>
<path fill="#EAEAEA" opacity="1.000000" stroke="none" 
	d="
M381.098846,124.895454 
	C381.386414,125.062950 381.673981,125.230453 382.030273,125.646576 
	C381.958588,126.001442 381.818146,126.107689 381.445801,126.340332 
	C380.947754,126.287308 380.690430,126.096107 380.560242,125.553864 
	C380.818665,125.108246 380.958740,125.001854 381.098846,124.895454 
z"/>
<path fill="#E6E6E6" opacity="1.000000" stroke="none" 
	d="
M268.303436,15.744053 
	C268.532349,15.927918 268.806824,16.123823 269.081299,16.319721 
	C269.000000,16.367821 268.918701,16.415926 268.837402,16.464037 
	C268.779633,16.337488 268.721863,16.210936 268.463593,15.910040 
	C268.263092,15.735696 268.348999,15.756091 268.303436,15.744053 
z"/>
<path fill="#EAEAEA" opacity="1.000000" stroke="none" 
	d="
M380.447144,125.341400 
	C379.950897,125.288445 379.694672,125.097244 379.563232,124.555161 
	C379.819244,124.109062 379.958954,124.002365 380.098633,123.895676 
	C380.386292,124.063126 380.673920,124.230576 381.030212,124.646744 
	C380.958740,125.001854 380.818665,125.108246 380.447144,125.341400 
z"/>
<path fill="#EAEAEA" opacity="1.000000" stroke="none" 
	d="
M379.449066,124.343887 
	C378.946014,124.282372 378.680420,124.083374 378.544189,123.533356 
	C378.810486,123.092957 378.954437,122.994232 379.098358,122.895508 
	C379.386078,123.063034 379.673828,123.230553 380.030090,123.646881 
	C379.958954,124.002365 379.819244,124.109062 379.449066,124.343887 
z"/>
<path fill="#000000" opacity="1.000000" stroke="none" 
	d="
M72.477364,338.464233 
	C72.519920,338.441376 72.434807,338.487091 72.477364,338.464233 
z"/>
<path fill="#EAEAEA" opacity="1.000000" stroke="none" 
	d="
M367.098297,110.895889 
	C367.386597,111.063942 367.674866,111.231995 367.886505,111.869186 
	C367.730499,112.496193 367.651154,112.654076 367.571777,112.811958 
	C367.245209,112.538956 366.918671,112.265961 366.636475,111.604790 
	C366.820007,111.109718 366.959167,111.002808 367.098297,110.895889 
z"/>
<path fill="#EAEAEA" opacity="1.000000" stroke="none" 
	d="
M369.098145,112.895950 
	C369.386627,113.064377 369.675140,113.232803 369.871246,113.859215 
	C369.690796,114.469521 369.602692,114.621849 369.514557,114.774185 
	C369.193146,114.502869 368.871735,114.231552 368.608215,113.575256 
	C368.810089,113.092171 368.954132,112.994057 369.098145,112.895950 
z"/>
<path fill="#EAEAEA" opacity="1.000000" stroke="none" 
	d="
M369.940735,114.108704 
	C370.389984,114.067734 370.677307,114.235260 370.871857,114.860115 
	C370.691040,115.469902 370.603027,115.622353 370.515015,115.774811 
	C370.195648,115.664429 369.956543,115.460106 369.656128,114.968002 
	C369.602692,114.621849 369.690796,114.469521 369.940735,114.108704 
z"/>
<path fill="#EAEAEA" opacity="1.000000" stroke="none" 
	d="
M370.940887,115.108795 
	C371.390045,115.067711 371.677399,115.235275 371.871948,115.860123 
	C371.691193,116.469826 371.603241,116.622261 371.515289,116.774689 
	C371.195953,116.664558 370.956909,116.460419 370.656555,115.968536 
	C370.603027,115.622353 370.691040,115.469902 370.940887,115.108795 
z"/>
<path fill="#EAEAEA" opacity="1.000000" stroke="none" 
	d="
M371.940918,116.108795 
	C372.389984,116.067657 372.677246,116.235115 372.870514,116.859177 
	C372.687439,117.467682 372.598389,117.619576 372.509369,117.771461 
	C372.193085,117.659523 371.955536,117.455811 371.656006,116.967506 
	C371.603241,116.622261 371.691193,116.469826 371.940918,116.108795 
z"/>
<path fill="#EAEAEA" opacity="1.000000" stroke="none" 
	d="
M373.514740,118.773819 
	C373.195190,118.662094 372.955322,118.457130 372.652252,117.965187 
	C372.598389,117.619576 372.687439,117.467682 372.939301,117.107826 
	C373.389618,117.067482 373.677124,117.235092 373.871765,117.859871 
	C373.690857,118.469292 373.602783,118.621552 373.514740,118.773819 
z"/>
<path fill="#EAEAEA" opacity="1.000000" stroke="none" 
	d="
M373.940735,118.108665 
	C374.389862,118.067680 374.677155,118.235069 374.870178,118.859222 
	C374.686310,119.467842 374.596710,119.619690 374.507080,119.771545 
	C374.191498,119.658691 373.954376,119.454659 373.655212,118.966637 
	C373.602783,118.621552 373.690857,118.469292 373.940735,118.108665 
z"/>
<path fill="#EAEAEA" opacity="1.000000" stroke="none" 
	d="
M375.560852,120.796021 
	C375.309357,120.588120 375.057831,120.380211 374.656708,119.971924 
	C374.596710,119.619690 374.686310,119.467842 374.939087,119.107849 
	C375.389740,119.067352 375.677185,119.235023 375.885284,119.867508 
	C375.724213,120.486877 375.642548,120.641449 375.560852,120.796021 
z"/>
<path fill="#EAEAEA" opacity="1.000000" stroke="none" 
	d="
M366.098694,109.895477 
	C366.386353,110.063057 366.673981,110.230644 367.029968,110.647064 
	C366.959167,111.002808 366.820007,111.109718 366.450073,111.343216 
	C365.953308,111.289673 365.695892,111.098106 365.563477,110.556007 
	C365.819611,110.109764 365.959137,110.002617 366.098694,109.895477 
z"/>
<path fill="#EAEAEA" opacity="1.000000" stroke="none" 
	d="
M407.099304,150.895020 
	C407.386749,151.062668 407.674164,151.230316 408.030396,151.646515 
	C407.958527,152.001282 407.817902,152.107513 407.445007,152.339966 
	C406.946075,152.286484 406.687927,152.095322 406.557770,151.553345 
	C406.817963,151.107681 406.958649,151.001358 407.099304,150.895020 
z"/>
<path fill="#EAEAEA" opacity="1.000000" stroke="none" 
	d="
M377.953796,122.115784 
	C378.389587,122.066612 378.676086,122.233116 379.030487,122.647560 
	C378.954437,122.994232 378.810486,123.092957 378.433044,123.310257 
	C377.996979,123.361084 377.831909,123.241508 377.632629,122.933052 
	C377.642120,122.641151 377.723358,122.486305 377.953796,122.115784 
z"/>
<path fill="#EAEAEA" opacity="1.000000" stroke="none" 
	d="
M365.098846,108.895065 
	C365.386414,109.062721 365.674011,109.230377 366.030151,109.646759 
	C365.959137,110.002617 365.819611,110.109764 365.448761,110.344032 
	C364.943817,110.281052 364.676941,110.081848 364.540344,109.531189 
	C364.808838,109.090904 364.953857,108.992989 365.098846,108.895065 
z"/>
<path fill="#EAEAEA" opacity="1.000000" stroke="none" 
	d="
M363.955841,108.117081 
	C364.389984,108.066132 364.676331,108.232826 365.030762,108.647293 
	C364.953857,108.992989 364.808838,109.090904 364.429504,109.306953 
	C363.993774,109.361130 363.830322,109.244118 363.635437,108.938019 
	C363.646667,108.646240 363.727356,108.490479 363.955841,108.117081 
z"/>
<path fill="#EAEAEA" opacity="1.000000" stroke="none" 
	d="
M406.444824,151.340240 
	C405.946625,151.285934 405.689087,151.094421 405.558594,150.552826 
	C405.817993,150.107559 405.958557,150.001328 406.099091,149.895096 
	C406.386597,150.062698 406.674072,150.230316 407.030457,150.646469 
	C406.958649,151.001358 406.817963,151.107681 406.444824,151.340240 
z"/>
<path fill="#EAEAEA" opacity="1.000000" stroke="none" 
	d="
M405.098846,148.895386 
	C405.386414,149.062897 405.673981,149.230408 406.030334,149.646515 
	C405.958557,150.001328 405.817993,150.107559 405.445282,150.340057 
	C404.946960,150.286804 404.689545,150.095535 404.559509,149.553314 
	C404.818420,149.107849 404.958618,149.001617 405.098846,148.895386 
z"/>
<path fill="#EAEAEA" opacity="1.000000" stroke="none" 
	d="
M368.434265,113.311081 
	C368.001160,113.368622 367.837616,113.252296 367.641785,112.947418 
	C367.651154,112.654076 367.730499,112.496193 367.957245,112.118011 
	C368.390717,112.065163 368.676819,112.232605 369.030518,112.647995 
	C368.954132,112.994057 368.810089,113.092171 368.434265,113.311081 
z"/>
<path fill="#EAEAEA" opacity="1.000000" stroke="none" 
	d="
M404.098480,147.895905 
	C404.386169,148.063278 404.673859,148.230637 405.030212,148.646698 
	C404.958618,149.001617 404.818420,149.107849 404.446594,149.340607 
	C403.949554,149.288162 403.693085,149.097061 403.562744,148.554596 
	C403.819336,148.108902 403.958893,148.002411 404.098480,147.895905 
z"/>
<path fill="#EAEAEA" opacity="1.000000" stroke="none" 
	d="
M403.449402,148.342865 
	C402.953430,148.289795 402.696381,148.097824 402.563782,147.554962 
	C402.819305,147.108902 402.958954,147.002396 403.098572,146.895874 
	C403.386261,147.063339 403.673981,147.230804 404.030090,147.647095 
	C403.958893,148.002411 403.819336,148.108902 403.449402,148.342865 
z"/>
<path fill="#E6E6E6" opacity="1.000000" stroke="none" 
	d="
M282.108490,25.885818 
	C282.394745,26.054359 282.680969,26.222898 283.037781,26.638758 
	C282.965240,26.993662 282.822174,27.101244 282.442749,27.336197 
	C281.938293,27.284937 281.679413,27.093832 281.554077,26.549368 
	C281.821777,26.100927 281.965149,25.993372 282.108490,25.885818 
z"/>
<path fill="#E6E6E6" opacity="1.000000" stroke="none" 
	d="
M281.108856,24.885466 
	C281.394989,25.054106 281.681091,25.222746 282.037842,25.638603 
	C281.965149,25.993372 281.821777,26.100927 281.441467,26.335575 
	C280.936035,26.283791 280.676514,26.092699 280.551117,25.547806 
	C280.820404,25.099306 280.964630,24.992388 281.108856,24.885466 
z"/>
<path fill="#000000" opacity="1.000000" stroke="none" 
	d="
M133.535721,399.478302 
	C133.558594,399.520874 133.512848,399.435730 133.535721,399.478302 
z"/>
<path fill="#E6E6E6" opacity="1.000000" stroke="none" 
	d="
M280.438843,25.333401 
	C279.933960,25.282883 279.675598,25.092783 279.551910,24.549496 
	C279.821289,24.100916 279.965118,23.993124 280.108917,23.885336 
	C280.395020,24.053974 280.681122,24.222610 281.038025,24.638357 
	C280.964630,24.992388 280.820404,25.099306 280.438843,25.333401 
z"/>
<path fill="#EAEAEA" opacity="1.000000" stroke="none" 
	d="
M402.449188,147.342957 
	C401.952362,147.289368 401.694244,147.097214 401.561371,146.554367 
	C401.818604,146.108261 401.958801,146.001846 402.098969,145.895432 
	C402.386566,146.063065 402.674133,146.230698 403.030151,146.647095 
	C402.958954,147.002396 402.819305,147.108902 402.449188,147.342957 
z"/>
<path fill="#E6E6E6" opacity="1.000000" stroke="none" 
	d="
M279.108887,22.885019 
	C279.394989,23.053720 279.681061,23.222422 280.038025,23.638229 
	C279.965118,23.993124 279.821289,24.100916 279.439880,24.336256 
	C278.932587,24.264185 278.662903,24.064564 278.526306,23.521263 
	C278.809296,23.080063 278.959106,22.982540 279.108887,22.885019 
z"/>
<path fill="#EAEAEA" opacity="1.000000" stroke="none" 
	d="
M401.446838,146.341522 
	C400.949036,146.287369 400.690887,146.095490 400.559143,145.553284 
	C400.817993,145.107590 400.958557,145.001328 401.099091,144.895081 
	C401.386597,145.062759 401.674133,145.230438 402.030304,145.646790 
	C401.958801,146.001846 401.818604,146.108261 401.446838,146.341522 
z"/>
<path fill="#000000" opacity="1.000000" stroke="none" 
	d="
M146.478333,413.463379 
	C146.520844,413.440460 146.435822,413.486298 146.478333,413.463379 
z"/>
<path fill="#EAEAEA" opacity="1.000000" stroke="none" 
	d="
M400.099121,143.895096 
	C400.386597,144.062714 400.674103,144.230316 401.030334,144.646515 
	C400.958557,145.001328 400.817993,145.107590 400.445282,145.340179 
	C399.946777,145.286972 399.689026,145.095856 399.559296,144.554520 
	C399.818878,144.108948 399.959015,144.002014 400.099121,143.895096 
z"/>
<path fill="#E6E6E6" opacity="1.000000" stroke="none" 
	d="
M277.966827,22.114395 
	C278.398529,22.057117 278.683380,22.224871 279.038544,22.638821 
	C278.959106,22.982540 278.809296,23.080063 278.417847,23.293865 
	C277.980988,23.357136 277.824432,23.248447 277.644531,22.952835 
	C277.661652,22.660866 277.740814,22.500145 277.966827,22.114395 
z"/>
<path fill="#EAEAEA" opacity="1.000000" stroke="none" 
	d="
M399.097534,142.896622 
	C399.385468,143.063629 399.673431,143.230637 400.030243,143.646378 
	C399.959015,144.002014 399.818878,144.108948 399.446228,144.341736 
	C398.944550,144.281067 398.683319,144.084030 398.549805,143.535095 
	C398.812225,143.094696 398.954865,142.995667 399.097534,142.896622 
z"/>
<path fill="#EAEAEA" opacity="1.000000" stroke="none" 
	d="
M398.439331,143.315552 
	C398.002777,143.363525 397.833466,143.239243 397.624939,142.924683 
	C397.632263,142.632126 397.715820,142.479385 397.950562,142.113678 
	C398.388641,142.067078 398.675629,142.233459 399.030060,142.648224 
	C398.954865,142.995667 398.812225,143.094696 398.439331,143.315552 
z"/>
<path fill="#EAEAEA" opacity="1.000000" stroke="none" 
	d="
M375.954498,120.116226 
	C376.389587,120.066620 376.676086,120.233093 377.030518,120.647476 
	C376.954041,120.993568 376.809631,121.091743 376.431885,121.308990 
	C375.995575,121.361397 375.830414,121.242271 375.631958,120.933350 
	C375.642548,120.641449 375.724213,120.486877 375.954498,120.116226 
z"/>
<path fill="#020201" opacity="1.000000" stroke="none" 
	d="
M229.342896,208.261749 
	C241.642166,199.928329 254.984665,195.382690 269.368164,195.206375 
	C284.988586,195.014908 299.669769,199.368195 312.244904,208.859940 
	C330.513245,222.649002 343.445099,240.473511 347.227020,263.308441 
	C351.117126,286.796265 348.285797,309.026093 329.242706,326.356293 
	C320.199707,334.585876 312.091492,343.564301 309.591858,356.117798 
	C309.047302,358.852631 309.152435,361.721008 309.008057,364.530426 
	C308.784821,368.875183 306.882721,371.190948 302.178131,371.169098 
	C281.043884,371.070923 259.908508,371.058502 238.774475,371.178436 
	C234.013794,371.205414 231.933960,368.880859 232.042633,364.546661 
	C232.374542,351.307983 226.293686,340.981903 217.395416,331.996674 
	C208.744324,323.261047 199.494858,315.076813 195.922791,302.593170 
	C188.127655,275.350739 192.472427,250.249496 209.788971,227.877167 
	C215.325455,220.724228 222.575348,214.897507 229.342896,208.261749 
M232.079086,219.564346 
	C210.747940,237.455887 200.118912,259.826599 203.376236,288.033356 
	C204.676300,299.291290 208.704224,309.321625 217.176682,317.062958 
	C230.209198,328.970764 241.113098,342.036865 242.638733,360.737579 
	C261.235718,360.737579 279.495056,360.737579 297.821442,360.737579 
	C298.122925,359.879425 298.560974,359.120972 298.642670,358.325897 
	C299.679291,348.241852 303.780823,339.334381 310.013916,331.607208 
	C314.791138,325.684967 320.626038,320.628387 325.796326,315.008179 
	C338.870728,300.796143 339.518127,283.352142 337.173615,265.791931 
	C335.389130,252.426193 328.488342,241.003387 320.052429,230.401947 
	C298.070831,202.777786 260.514893,197.756500 232.079086,219.564346 
z"/>
<path fill="#010101" opacity="1.000000" stroke="none" 
	d="
M261.000000,394.865112 
	C274.150208,394.864624 286.800537,394.838318 299.450623,394.875610 
	C305.095001,394.892242 306.983093,396.209930 305.756561,401.625916 
	C304.524109,407.068207 302.071259,412.599304 298.824310,417.141571 
	C292.689545,425.723846 282.807098,429.210510 273.106110,430.630249 
	C263.977844,431.966156 255.471909,427.571564 247.703796,422.407990 
	C240.314819,417.496399 236.782654,410.169128 234.186020,402.202332 
	C232.969193,398.468994 235.772339,395.009735 240.027588,394.916565 
	C246.848831,394.767181 253.675598,394.869385 261.000000,394.865112 
M284.221497,415.897919 
	C288.184387,413.246948 292.213043,410.655609 293.937439,405.467651 
	C278.115540,405.467651 262.693298,405.467651 247.080536,405.467651 
	C252.590576,418.240509 268.891785,422.874512 284.221497,415.897919 
z"/>
<path fill="#000000" opacity="1.000000" stroke="none" 
	d="
M239.046799,388.154755 
	C234.768860,384.513031 234.616898,382.269897 239.170715,378.070190 
	C260.629272,377.925232 281.287842,377.885101 301.946381,377.844971 
	C306.202942,381.481689 306.357361,383.746094 301.826782,387.928040 
	C280.366760,388.073059 259.706787,388.113892 239.046799,388.154755 
z"/>
<path fill="#000000" opacity="1.000000" stroke="none" 
	d="
M372.766235,281.421051 
	C370.673767,276.210693 372.297485,273.141602 377.301819,273.068237 
	C389.791992,272.885101 402.294495,272.785156 414.771729,273.226868 
	C416.854095,273.300568 419.995148,275.930634 420.578308,277.970795 
	C421.371552,280.746002 419.110199,283.178650 415.808197,283.673279 
	C414.665314,283.844482 413.504333,283.982208 412.351288,283.984711 
	C401.524200,284.008057 390.694183,284.128387 379.872101,283.894806 
	C377.573914,283.845184 375.304321,282.470734 372.766235,281.421051 
z"/>
<path fill="#000000" opacity="1.000000" stroke="none" 
	d="
M265.001038,130.343002 
	C265.003448,129.385361 264.955902,128.880722 265.016144,128.389313 
	C265.399475,125.262848 266.286835,122.304764 270.027252,122.083527 
	C274.068970,121.844482 275.781586,124.887520 275.847107,128.151459 
	C276.097168,140.609085 276.117981,153.078201 275.841980,165.534561 
	C275.774841,168.563553 273.978577,171.387405 270.081177,170.974533 
	C266.083588,170.551041 265.071930,167.529205 265.041870,164.203110 
	C264.941284,153.070236 265.001953,141.935898 265.001038,130.343002 
z"/>
<path fill="#000000" opacity="1.000000" stroke="none" 
	d="
M199.176559,165.825409 
	C195.846771,161.063522 192.681412,156.626007 189.652084,152.097473 
	C187.535141,148.932922 186.531464,145.575668 190.353088,142.959213 
	C194.060516,140.420944 196.460373,143.336212 198.194382,145.832809 
	C205.165314,155.869476 211.905365,166.067978 218.634521,176.270157 
	C220.395523,178.940048 220.335281,181.844727 217.514984,183.711365 
	C214.552246,185.672272 211.829651,184.663086 209.881927,181.785782 
	C206.358429,176.580597 202.890320,171.337936 199.176559,165.825409 
z"/>
<path fill="#000000" opacity="1.000000" stroke="none" 
	d="
M387.407227,345.623901 
	C389.560394,346.915771 391.628571,347.759430 393.202332,349.158966 
	C395.329498,351.050598 397.243713,353.331818 395.039520,356.460510 
	C393.069794,359.256439 390.572235,359.781830 387.710754,357.961090 
	C377.270447,351.318054 366.820099,344.689178 356.461884,337.919800 
	C353.429413,335.937958 351.385651,333.074280 354.166229,329.590729 
	C356.657928,326.469025 359.975983,327.643951 362.693970,329.376251 
	C370.904144,334.608856 378.976074,340.058380 387.407227,345.623901 
z"/>
<path fill="#000000" opacity="1.000000" stroke="none" 
	d="
M161.721420,212.265045 
	C166.151749,215.195404 170.287842,217.908386 174.390961,220.670349 
	C177.152878,222.529510 178.072266,225.304489 176.307571,227.977722 
	C174.364685,230.920898 171.312286,230.812210 168.422363,228.967209 
	C158.411957,222.576309 148.348969,216.263840 138.455002,209.697037 
	C135.793289,207.930405 132.590439,205.660980 135.074921,201.640747 
	C137.545547,197.642960 140.609680,198.596008 143.937698,200.840515 
	C149.676666,204.710983 155.579224,208.338852 161.721420,212.265045 
z"/>
<path fill="#000000" opacity="1.000000" stroke="none" 
	d="
M352.179230,148.963348 
	C345.090790,159.731613 338.154999,170.154037 331.220367,180.577225 
	C329.273682,183.503265 326.810638,185.272232 323.393188,183.076035 
	C319.902008,180.832474 320.575958,177.802643 322.531372,174.879272 
	C329.307373,164.749130 335.943817,154.514679 343.110779,144.667419 
	C344.341614,142.976273 347.906067,142.983566 350.392517,142.206268 
	C351.039124,144.343445 351.685730,146.480621 352.179230,148.963348 
z"/>
<path fill="#000000" opacity="1.000000" stroke="none" 
	d="
M156.120667,357.355042 
	C152.830017,359.328217 149.446930,360.168793 147.512482,356.736084 
	C145.457520,353.089478 147.460938,350.421295 150.967072,348.229279 
	C160.207092,342.452362 169.216034,336.306030 178.324478,330.318207 
	C178.873871,329.957001 179.492035,329.701538 180.072128,329.385742 
	C183.017242,327.782257 186.300552,326.493378 188.392456,330.072632 
	C190.324661,333.378693 189.087387,336.150055 185.579529,338.322052 
	C175.748123,344.409485 166.115921,350.818604 156.120667,357.355042 
z"/>
<path fill="#000000" opacity="1.000000" stroke="none" 
	d="
M393.972229,201.944778 
	C400.347900,197.530991 403.319061,197.120102 405.290619,200.771378 
	C408.218506,206.193726 403.486176,208.094986 400.179565,210.270203 
	C391.097626,216.244675 381.846497,221.961761 372.755524,227.922882 
	C369.736938,229.902222 366.681519,230.535507 364.434357,227.570389 
	C362.053619,224.428986 363.859070,221.583588 366.757843,219.660614 
	C375.678406,213.742920 384.667114,207.927994 393.972229,201.944778 
z"/>
<path fill="#000000" opacity="1.000000" stroke="none" 
	d="
M122.987442,283.927795 
	C118.944763,280.057465 118.871704,278.547333 123.231247,274.317719 
	C137.927460,273.964905 151.929260,273.908386 165.931076,273.851898 
	C170.101501,277.413910 170.261749,280.189240 165.778015,283.684509 
	C151.045380,283.963684 137.016418,283.945740 122.987442,283.927795 
z"/>
<path fill="#525D7B" opacity="1.000000" stroke="none" 
	d="
M239.367584,388.408325 
	C259.706787,388.113892 280.366760,388.073059 301.487427,388.092499 
	C301.359741,388.417755 300.770691,388.915497 300.183014,388.913910 
	C280.018036,388.859131 259.853210,388.757141 239.367584,388.408325 
z"/>
<path fill="#515E7E" opacity="1.000000" stroke="none" 
	d="
M301.625916,377.592041 
	C281.287842,377.885101 260.629272,377.925232 239.509644,377.904205 
	C239.637543,377.579285 240.227188,377.083740 240.815460,377.085358 
	C260.978882,377.140839 281.142151,377.243347 301.625916,377.592041 
z"/>
<path fill="#515E7E" opacity="1.000000" stroke="none" 
	d="
M123.286331,284.224274 
	C137.016418,283.945740 151.045380,283.963684 165.544678,283.960449 
	C165.456436,284.262573 164.896271,284.870667 164.339539,284.867523 
	C150.754562,284.791412 137.169922,284.650269 123.286331,284.224274 
z"/>
<path fill="#515E7D" opacity="1.000000" stroke="none" 
	d="
M165.612579,273.598755 
	C151.929260,273.908386 137.927460,273.964905 123.455383,274.045563 
	C123.703842,273.723633 124.423546,273.074127 125.141136,273.076416 
	C138.525604,273.119934 151.909821,273.240906 165.612579,273.598755 
z"/>
<path fill="#FEE95C" opacity="1.000000" stroke="none" 
	d="
M232.345032,219.321136 
	C260.514893,197.756500 298.070831,202.777786 320.052429,230.401947 
	C328.488342,241.003387 335.389130,252.426193 337.173615,265.791931 
	C339.518127,283.352142 338.870728,300.796143 325.796326,315.008179 
	C320.626038,320.628387 314.791138,325.684967 310.013916,331.607208 
	C303.780823,339.334381 299.679291,348.241852 298.642670,358.325897 
	C298.560974,359.120972 298.122925,359.879425 297.821442,360.737579 
	C279.495056,360.737579 261.235718,360.737579 242.638733,360.737579 
	C241.113098,342.036865 230.209198,328.970764 217.176682,317.062958 
	C208.704224,309.321625 204.676300,299.291290 203.376236,288.033356 
	C200.118912,259.826599 210.747940,237.455887 232.345032,219.321136 
M252.064560,225.527115 
	C234.467911,234.572433 222.581360,248.416092 216.672379,267.376678 
	C215.620422,270.752136 216.006500,273.623810 219.385025,274.804932 
	C222.977264,276.060730 225.696625,274.722443 227.009186,270.662903 
	C233.338043,251.088943 246.311310,238.067749 265.927216,231.719299 
	C269.287872,230.631653 271.742889,228.549072 270.624786,224.756088 
	C269.422333,220.677170 265.999664,220.293564 262.490234,221.407806 
	C259.172974,222.460983 255.978851,223.902054 252.064560,225.527115 
z"/>
<path fill="#575859" opacity="1.000000" stroke="none" 
	d="
M283.890167,416.067505 
	C268.891785,422.874512 252.590576,418.240509 247.080536,405.467651 
	C262.693298,405.467651 278.115540,405.467651 293.937439,405.467651 
	C292.213043,410.655609 288.184387,413.246948 283.890167,416.067505 
z"/>
<path fill="#FFFEFB" opacity="1.000000" stroke="none" 
	d="
M252.397568,225.349823 
	C255.978851,223.902054 259.172974,222.460983 262.490234,221.407806 
	C265.999664,220.293564 269.422333,220.677170 270.624786,224.756088 
	C271.742889,228.549072 269.287872,230.631653 265.927216,231.719299 
	C246.311310,238.067749 233.338043,251.088943 227.009186,270.662903 
	C225.696625,274.722443 222.977264,276.060730 219.385025,274.804932 
	C216.006500,273.623810 215.620422,270.752136 216.672379,267.376678 
	C222.581360,248.416092 234.467911,234.572433 252.397568,225.349823 
z"/>
</svg>